<svg xmlns="http://www.w3.org/2000/svg" viewBox="0 0 128 128">
  <path d="M64,127c34.7,0,63-28.3,63-63S98.7,1,64,1S1,29.3,1,64S29.3,127,64,127z M118.7,48.1c1.5,5.1,2.3,10.4,2.3,15.9 c0,31.4-25.6,57-57,57c-5.3,0-10.5-0.7-15.4-2.1c1.4-2,2.5-4.3,3.7-6.7c3.3-6.6,6.8-13.5,15.3-15.9c0.2,0,0.6-0.1,1.1-0.2 c5.4-1.1,21.9-4.5,28.2-12.7c6.6-8.7,4.5-20.8,3.3-27.4c-0.2-1.4-0.6-3.1-0.5-3.6c0.2-2.6,1.3-3.6,2-4.2 C105.8,45.1,115.2,47.2,118.7,48.1C118.7,48.1,118.7,48.1,118.7,48.1z M7,64c0-19.7,10-37.1,25.3-47.3C40.6,23.6,50.4,33,48.9,41 c-0.7,3.5-3,5.5-6.3,8.4c-3.8,3.3-8.5,7.4-11.4,15.2c-2.5,6.5-2.3,11.9-2.1,15.9c0.1,3.9,0.1,5.5-1.1,6.5 c-1.4,1.3-5.6,2.5-17.2-2.6C8.3,78.1,7,71.2,7,64z M24.1,94.1c3.2,0,5.8-0.9,7.8-2.6c3.5-3,3.3-7,3.2-11.3 c-0.1-3.8-0.3-8.2,1.7-13.5c2.4-6.4,6.1-9.6,9.7-12.8c3.5-3.1,7.2-6.3,8.2-11.8c1.6-8.6-3.7-18.1-16.4-29C46.1,9.2,54.8,7,64,7 c23.4,0,43.6,14.2,52.3,34.4c-5.3-1-13.1-1.8-18.1,1.8c-2.7,1.9-4.2,4.8-4.5,8.5c-0.1,1.2,0.2,2.8,0.6,5.2c1.1,6,2.8,16.1-2.2,22.7 c-2.2,2.9-8.3,7.1-24.6,10.5c-0.8,0.2-1.3,0.3-1.5,0.3c-11.1,3.2-15.5,12-19,19c-1.4,2.8-2.8,5.5-4.3,7.4 c-11.9-4.8-21.8-13.5-28.1-24.6C18.2,93.5,21.4,94.1,24.1,94.1z" fill="#5B5B5B" />
</svg>