<?xml version="1.0" encoding="utf-8"?>
<svg xmlns="http://www.w3.org/2000/svg" viewBox="0 0 26 26" width="52" height="52">
  <path d="M12.03125 1.0625C11.710938 1.066406 11.355469 1.207031 11.03125 1.53125L5.3125 8L1 8C0.449219 8 0 8.449219 0 9L0 17C0 17.550781 0.449219 18 1 18L5.3125 18L11 24.4375C12 25.4375 13 24.925781 13 23.5625L13 2.28125C13 1.488281 12.566406 1.058594 12.03125 1.0625 Z M 19.28125 3.0625C18.84375 3.136719 18.507813 3.492188 18.457031 3.933594C18.410156 4.375 18.652344 4.796875 19.0625 4.96875C22 6.449219 24 9.476563 24 13C24 16.523438 22 19.550781 19.0625 21.03125C18.695313 21.15625 18.4375 21.484375 18.394531 21.867188C18.351563 22.253906 18.535156 22.628906 18.867188 22.832031C19.195313 23.03125 19.613281 23.023438 19.9375 22.8125C23.527344 21 26 17.289063 26 13C26 8.710938 23.527344 5 19.9375 3.1875C19.765625 3.089844 19.570313 3.046875 19.375 3.0625C19.34375 3.0625 19.3125 3.0625 19.28125 3.0625 Z M 16.90625 6.9375C16.464844 6.96875 16.097656 7.289063 16.003906 7.722656C15.910156 8.15625 16.109375 8.601563 16.5 8.8125C18.042969 9.769531 19 11.289063 19 13C19 14.722656 18.027344 16.261719 16.46875 17.21875C16.136719 17.394531 15.929688 17.742188 15.933594 18.117188C15.9375 18.492188 16.152344 18.832031 16.492188 19C16.828125 19.167969 17.230469 19.128906 17.53125 18.90625C19.601563 17.636719 21 15.476563 21 13C21 10.539063 19.613281 8.367188 17.5625 7.09375C17.394531 6.988281 17.199219 6.933594 17 6.9375C16.96875 6.9375 16.9375 6.9375 16.90625 6.9375Z" fill="#5B5B5B" />
</svg>