<?xml version="1.0" encoding="utf-8"?>
<svg xmlns="http://www.w3.org/2000/svg" viewBox="0 0 26 26" width="52" height="52">
  <path d="M23.90625 -0.03125C23.863281 -0.0234375 23.820313 -0.0117188 23.78125 0C23.316406 0.105469 22.988281 0.523438 23 1C23 1 22.996094 1.722656 22.53125 2.46875C22.066406 3.214844 21.234375 4 19 4C15.777344 4 13.902344 5.148438 12.96875 6.40625C12.035156 7.664063 12.03125 9 12.03125 9C12.027344 9.359375 12.214844 9.695313 12.527344 9.878906C12.839844 10.058594 13.222656 10.058594 13.535156 9.878906C13.847656 9.695313 14.035156 9.359375 14.03125 9C14.03125 9 14.011719 8.335938 14.5625 7.59375C15.113281 6.851563 16.222656 6 19 6C21.765625 6 23.433594 4.785156 24.21875 3.53125C25.003906 2.277344 25 1 25 1C25.011719 0.710938 24.894531 0.433594 24.6875 0.238281C24.476563 0.0390625 24.191406 -0.0585938 23.90625 -0.03125 Z M 6.96875 9.09375C4.222656 9.09375 0.21875 14.046875 0.21875 20.28125C0.21875 22.234375 1.707031 24.9375 3.34375 24.9375C6.621094 24.9375 7.238281 19.90625 13 19.90625C18.761719 19.90625 19.378906 24.9375 22.65625 24.9375C24.292969 24.9375 25.78125 22.234375 25.78125 20.28125C25.78125 14.046875 21.777344 9.09375 19.03125 9.09375C16.285156 9.09375 15.746094 12.0625 13 12.0625C10.253906 12.0625 9.714844 9.09375 6.96875 9.09375 Z M 18.75 12.75C18.832031 12.734375 18.914063 12.75 19 12.75C19.695313 12.75 20.25 13.300781 20.25 14C20.25 14.699219 19.695313 15.25 19 15.25C18.304688 15.25 17.75 14.699219 17.75 14C17.75 13.390625 18.175781 12.867188 18.75 12.75 Z M 6 13L8 13L8 15L10 15L10 17L8 17L8 19L6 19L6 17L4 17L4 15L6 15 Z M 16.75 14.75C16.832031 14.734375 16.914063 14.75 17 14.75C17.699219 14.75 18.25 15.300781 18.25 16C18.25 16.699219 17.699219 17.25 17 17.25C16.300781 17.25 15.75 16.695313 15.75 16C15.75 15.390625 16.171875 14.867188 16.75 14.75 Z M 20.75 14.75C20.832031 14.734375 20.914063 14.75 21 14.75C21.699219 14.75 22.25 15.300781 22.25 16C22.25 16.699219 21.699219 17.25 21 17.25C20.300781 17.25 19.75 16.699219 19.75 16C19.75 15.390625 20.171875 14.867188 20.75 14.75 Z M 18.75 16.75C18.832031 16.734375 18.914063 16.75 19 16.75C19.699219 16.75 20.25 17.300781 20.25 18C20.25 18.699219 19.695313 19.25 19 19.25C18.304688 19.25 17.75 18.699219 17.75 18C17.75 17.386719 18.175781 16.867188 18.75 16.75Z" fill="#5B5B5B" />
</svg>