<?xml version="1.0" encoding="utf-8"?>
<svg xmlns="http://www.w3.org/2000/svg" viewBox="0 0 24 24" width="48" height="48">
  <path d="M3.984375 0.171875 A 1.0001 1.0001 0 0 0 3.2929688 0.46484375L0.46484375 3.2929688 A 1.0001 1.0001 0 0 0 0.46484375 4.7070312L3.2929688 7.5351562 A 1.0001 1.0001 0 0 0 4.7070312 7.5351562L7.5351562 4.7070312 A 1.0001 1.0001 0 0 0 7.5351562 3.2929688L4.7070312 0.46484375 A 1.0001 1.0001 0 0 0 3.984375 0.171875 z M 19.986328 0.171875 A 1.0001 1.0001 0 0 0 19.292969 0.46484375L16.464844 3.2929688 A 1.0001 1.0001 0 0 0 16.464844 4.7070312L19.292969 7.5351562 A 1.0001 1.0001 0 0 0 20.707031 7.5351562L23.535156 4.7070312 A 1.0001 1.0001 0 0 0 23.535156 3.2929688L20.707031 0.46484375 A 1.0001 1.0001 0 0 0 19.986328 0.171875 z M 4 2.5859375L5.4140625 4L4 5.4140625L2.5859375 4L4 2.5859375 z M 20 2.5859375L21.414062 4L20 5.4140625L18.585938 4L20 2.5859375 z M 12 5C8.1458495 5 5 8.1458524 5 12C5 15.854148 8.1458495 19 12 19C15.854151 19 19 15.854148 19 12C19 8.1458524 15.854151 5 12 5 z M 12 7C14.773271 7 17 9.2267307 17 12C17 14.773269 14.773271 17 12 17C9.226729 17 7 14.773269 7 12C7 9.2267307 9.226729 7 12 7 z M 3.984375 16.171875 A 1.0001 1.0001 0 0 0 3.2929688 16.464844L0.46484375 19.292969 A 1.0001 1.0001 0 0 0 0.46484375 20.707031L3.2929688 23.535156 A 1.0001 1.0001 0 0 0 4.7070312 23.535156L7.5351562 20.707031 A 1.0001 1.0001 0 0 0 7.5351562 19.292969L4.7070312 16.464844 A 1.0001 1.0001 0 0 0 3.984375 16.171875 z M 19.986328 16.171875 A 1.0001 1.0001 0 0 0 19.292969 16.464844L16.464844 19.292969 A 1.0001 1.0001 0 0 0 16.464844 20.707031L19.292969 23.535156 A 1.0001 1.0001 0 0 0 20.707031 23.535156L23.535156 20.707031 A 1.0001 1.0001 0 0 0 23.535156 19.292969L20.707031 16.464844 A 1.0001 1.0001 0 0 0 19.986328 16.171875 z M 4 18.585938L5.4140625 20L4 21.414062L2.5859375 20L4 18.585938 z M 20 18.585938L21.414062 20L20 21.414062L18.585938 20L20 18.585938 z" fill="#5B5B5B" />
</svg>