<?xml version="1.0" encoding="utf-8"?>
<svg xmlns="http://www.w3.org/2000/svg" viewBox="0 0 24 24" width="48" height="48">
  <path d="M10 2C9.448 2 9 2.448 9 3L9 4L2 4L2 6L9 6L9 7C9 7.552 9.448 8 10 8L11 8C11.552 8 12 7.552 12 7L12 3C12 2.448 11.552 2 11 2L10 2 z M 14 4L14 6L22 6L22 4L14 4 z M 15 9C14.448 9 14 9.448 14 10L14 11L2 11L2 13L14 13L14 14C14 14.552 14.448 15 15 15L16 15C16.552 15 17 14.552 17 14L17 10C17 9.448 16.552 9 16 9L15 9 z M 19 11L19 13L22 13L22 11L19 11 z M 5 16C4.448 16 4 16.448 4 17L4 18L2 18L2 20L4 20L4 21C4 21.552 4.448 22 5 22L6 22C6.552 22 7 21.552 7 21L7 17C7 16.448 6.552 16 6 16L5 16 z M 9 18L9 20L22 20L22 18L9 18 z" fill="#5B5B5B" />
</svg>