<?xml version="1.0" encoding="utf-8"?>
<svg xmlns="http://www.w3.org/2000/svg" viewBox="0 0 30 30" width="60" height="60">
  <path d="M15 3C8.3845336 3 3 8.3845336 3 15C3 21.615466 8.3845336 27 15 27C21.615466 27 27 21.615466 27 15C27 8.3845336 21.615466 3 15 3 z M 15 5C20.534534 5 25 9.4654664 25 15C25 20.534534 20.534534 25 15 25C9.4654664 25 5 20.534534 5 15C5 9.4654664 9.4654664 5 15 5 z M 15 7C10.582 7 7 10.582 7 15C7 19.418 10.582 23 15 23C19.418 23 23 19.418 23 15C23 10.582 19.418 7 15 7 z M 15 10C15.256 10 15.512031 10.097969 15.707031 10.292969L18.707031 13.292969C19.098031 13.683969 19.098031 14.316031 18.707031 14.707031C18.316031 15.098031 17.683969 15.098031 17.292969 14.707031L16 13.414062L16 19C16 19.552 15.552 20 15 20C14.448 20 14 19.552 14 19L14 13.414062L12.707031 14.707031C12.316031 15.098031 11.683969 15.098031 11.292969 14.707031C10.901969 14.316031 10.901969 13.683969 11.292969 13.292969L14.292969 10.292969C14.487969 10.097969 14.744 10 15 10 z" fill="#5B5B5B" />
</svg>