<?xml version="1.0" encoding="utf-8"?>
<svg xmlns="http://www.w3.org/2000/svg" viewBox="0 0 30 30" width="64" height="64">
  <path d="M4 7C2.3550302 7 1 8.3550302 1 10L1 19C1 20.64497 2.3550302 22 4 22L24 22C25.64497 22 27 20.64497 27 19L27 10C27 8.3550302 25.64497 7 24 7L4 7 z M 4 9L24 9C24.56503 9 25 9.4349698 25 10L25 19C25 19.56503 24.56503 20 24 20L4 20C3.4349698 20 3 19.56503 3 19L3 10C3 9.4349698 3.4349698 9 4 9 z M 5 11L5 18L17 18L17 11L5 11 z M 28 12L28 17L29 17C29.552 17 30 16.552 30 16L30 13C30 12.448 29.552 12 29 12L28 12 z" fill="#5B5B5B" />
</svg>