<?xml version="1.0" encoding="utf-8"?>
<svg xmlns="http://www.w3.org/2000/svg" viewBox="0 0 32 32" width="64" height="64">
  <path d="M16 3C9.953125 3 5 7.953125 5 14L5 20C5 21.292969 5.84375 22.394531 7 22.8125L7 23C7 25.746094 9.253906 28 12 28L13.28125 28C13.628906 28.597656 14.261719 29 15 29L17 29C18.101563 29 19 28.101563 19 27C19 25.898438 18.101563 25 17 25L15 25C14.261719 25 13.628906 25.402344 13.28125 26L12 26C10.34375 26 9 24.65625 9 23L11 23L11 14L7 14C7 9.046875 11.046875 5 16 5C20.953125 5 25 9.046875 25 14L21 14L21 23L24 23C25.644531 23 27 21.644531 27 20L27 14C27 7.953125 22.046875 3 16 3 Z M 7 16L9 16L9 21L8 21C7.445313 21 7 20.554688 7 20 Z M 23 16L25 16L25 20C25 20.554688 24.554688 21 24 21L23 21Z" fill="#5B5B5B" />
</svg>