<?xml version="1.0" encoding="utf-8"?>
<svg xmlns="http://www.w3.org/2000/svg" viewBox="0 0 32 32" width="64" height="64">
  <path d="M16 5C9.9375 5 5 9.9375 5 16L5 24C5 25.644531 6.355469 27 8 27L11 27L11 18L7 18L7 16C7 11.015625 11.015625 7 16 7C20.984375 7 25 11.015625 25 16L25 18L21 18L21 27L24 27C25.644531 27 27 25.644531 27 24L27 16C27 9.9375 22.0625 5 16 5 Z M 7 20L9 20L9 25L8 25C7.433594 25 7 24.566406 7 24 Z M 23 20L25 20L25 24C25 24.566406 24.566406 25 24 25L23 25Z" fill="#5B5B5B" />
</svg>