<?xml version="1.0" encoding="utf-8"?>
<svg xmlns="http://www.w3.org/2000/svg" viewBox="0 0 32 32" width="64" height="64">
  <path d="M16 3C8.832031 3 3 8.832031 3 16C3 23.167969 8.832031 29 16 29C23.167969 29 29 23.167969 29 16C29 8.832031 23.167969 3 16 3 Z M 16 5C22.085938 5 27 9.914063 27 16C27 22.085938 22.085938 27 16 27C14.367188 27 12.828125 26.632813 11.4375 26L14.625 22.78125C15.078125 22.875 15.519531 23 16 23C19.855469 23 23 19.855469 23 16C23 14.972656 22.769531 14 22.375 13.125L21.78125 11.8125L20.75 12.8125L17 16.5625L15.4375 15L19.1875 11.25L20.1875 10.21875L18.875 9.625C18 9.230469 17.027344 9 16 9C12.144531 9 9 12.144531 9 16C9 16.480469 9.125 16.921875 9.21875 17.375L6 20.5625C5.367188 19.171875 5 17.632813 5 16C5 9.914063 9.914063 5 16 5 Z M 16 11C16.167969 11 16.308594 11.078125 16.46875 11.09375L13.28125 14.28125L12.59375 15L13.28125 15.71875L16.28125 18.71875L17 19.40625L17.71875 18.71875L20.90625 15.53125C20.921875 15.691406 21 15.832031 21 16C21 18.773438 18.773438 21 16 21C15.496094 21 15.023438 20.921875 14.5625 20.78125L13.96875 20.625L9.625 24.96875C8.621094 24.253906 7.746094 23.378906 7.03125 22.375L11.375 18.03125L11.21875 17.4375C11.078125 16.976563 11 16.503906 11 16C11 13.226563 13.226563 11 16 11Z" fill="#5B5B5B" />
</svg>