<?xml version="1.0" encoding="utf-8"?>
<svg xmlns="http://www.w3.org/2000/svg" viewBox="0 0 32 32" width="64" height="64">
  <path d="M3 7C1.90625 7 1 7.90625 1 9L1 23C1 24.09375 1.90625 25 3 25L29 25C30.09375 25 31 24.09375 31 23L31 9C31 7.90625 30.09375 7 29 7 Z M 3 9L29 9L29 23L3 23 Z M 5 11L5 13L7 13L7 11 Z M 9 11L9 13L11 13L11 11 Z M 13 11L13 13L15 13L15 11 Z M 17 11L17 13L19 13L19 11 Z M 21 11L21 13L23 13L23 11 Z M 25 11L25 13L27 13L27 11 Z M 5 15L5 17L9 17L9 15 Z M 11 15L11 17L13 17L13 15 Z M 15 15L15 17L17 17L17 15 Z M 19 15L19 17L21 17L21 15 Z M 23 15L23 17L27 17L27 15 Z M 5 19L5 21L9 21L9 19 Z M 11 19L11 21L21 21L21 19 Z M 23 19L23 21L27 21L27 19Z" fill="#5B5B5B" />
</svg>