<?xml version="1.0" encoding="utf-8"?>
<svg xmlns="http://www.w3.org/2000/svg" viewBox="0 0 50 50" width="100" height="100">
  <path d="M19.8125 13.09375C19.59375 13.132813 19.398438 13.242188 19.25 13.40625L8.34375 24.28125L7.65625 25L8.34375 25.71875L19.25 36.59375C19.492188 36.890625 19.878906 37.027344 20.253906 36.941406C20.625 36.855469 20.917969 36.5625 21.003906 36.191406C21.089844 35.816406 20.953125 35.429688 20.65625 35.1875L11.46875 26L41 26C41.359375 26.003906 41.695313 25.816406 41.878906 25.503906C42.058594 25.191406 42.058594 24.808594 41.878906 24.496094C41.695313 24.183594 41.359375 23.996094 41 24L11.46875 24L20.65625 14.8125C20.980469 14.511719 21.066406 14.035156 20.871094 13.640625C20.679688 13.242188 20.246094 13.023438 19.8125 13.09375Z" fill="#0F0F0F" />
</svg>