<?xml version="1.0" encoding="utf-8"?>
<svg xmlns="http://www.w3.org/2000/svg" viewBox="0 0 26 26" width="52" height="52">
  <path d="M13 0C10.238281 0 8 2.238281 8 5L8 13C8 15.761719 10.238281 18 13 18C13.171875 18 13.332031 17.984375 13.5 17.96875C15.011719 17.816406 16.347656 16.976563 17.15625 15.78125C17.695313 14.984375 18 14.035156 18 13L18 5C18 2.238281 15.761719 0 13 0 Z M 13 2C14.300781 2 15.394531 2.84375 15.8125 4L15 4C14.449219 4 14 4.449219 14 5C14 5.964844 15 6 15 6L16 6L16 7L15 7C14.449219 7 14 7.449219 14 8C14 8.964844 15 9 15 9L16 9L16 10L10 10L10 9L11 9C11 9 12 8.964844 12 8C12 7.449219 11.550781 7 11 7L10 7L10 6L11 6C11 6 12 5.964844 12 5C12 4.449219 11.550781 4 11 4L10.1875 4C10.605469 2.84375 11.699219 2 13 2 Z M 5 11C4.109375 11 4 12 4 12L4 13C4 17.273438 6.996094 20.835938 11 21.75L11 24L8 24C7.039063 24 7 25 7 25L7 26L19 26L19 25C19 24.449219 18.550781 24 18 24L15 24L15 21.75C19.003906 20.835938 22 17.273438 22 13L22 12C22 12 21.90625 11 21 11C20.09375 11 20 12 20 12L20 13C20 16.859375 16.859375 20 13 20C9.140625 20 6 16.859375 6 13L6 12C6 12 5.890625 11 5 11Z" fill="#5B5B5B" />
</svg>