<?xml version="1.0" encoding="utf-8"?>
<svg xmlns="http://www.w3.org/2000/svg" viewBox="0 0 26 26" width="52" height="52">
  <path d="M0.90625 -0.03125C0.863281 -0.0234375 0.820313 -0.0117188 0.78125 0C0.40625 0.0664063 0.105469 0.339844 0 0.703125C-0.105469 1.070313 0.00390625 1.460938 0.28125 1.71875L24.28125 25.71875C24.679688 26.117188 25.320313 26.117188 25.71875 25.71875C26.117188 25.320313 26.117188 24.679688 25.71875 24.28125L22.53125 21.09375C24.726563 19.066406 26.09375 16.210938 26.09375 13.09375C26.09375 8.894531 23.800781 5.210938 20 3.3125C19.5 3.113281 18.886719 3.289063 18.6875 3.6875C18.386719 4.085938 18.601563 4.699219 19 5C22.101563 6.5 24 9.601563 24 13C24 15.617188 22.898438 17.960938 21.0625 19.625L19.78125 18.3125C21.101563 16.851563 21.90625 14.929688 21.90625 12.90625C21.90625 10.007813 20.289063 7.304688 17.6875 5.90625C17.1875 5.605469 16.613281 5.8125 16.3125 6.3125C16.210938 6.8125 16.414063 7.488281 16.8125 7.6875C18.8125 8.789063 20 10.800781 20 13C20 14.519531 19.417969 15.933594 18.4375 17L17.03125 15.59375C17.648438 14.902344 18 14.007813 18 13C18 11.199219 16.800781 9.59375 15 9.09375C14.5 8.992188 13.914063 9.3125 13.8125 9.8125C13.710938 10.414063 14 10.894531 14.5 11.09375C15.398438 11.292969 16 12.101563 16 13C16 13.433594 15.871094 13.855469 15.625 14.1875L13 11.5625L13 3.3125C13 2.011719 11.898438 1.695313 11 2.59375L7.46875 6.03125L1.71875 0.28125C1.511719 0.0585938 1.210938 -0.0546875 0.90625 -0.03125 Z M 4.6875 8.8125L4.40625 9L1 9C0.398438 9 0 9.398438 0 10L0 16C0 16.601563 0.398438 17 1 17L4.40625 17L10.90625 23.40625C11.90625 24.40625 12.90625 23.898438 12.90625 22.5L12.90625 17.09375Z" fill="#5B5B5B" />
</svg>