<?xml version="1.0" encoding="utf-8"?>
<svg xmlns="http://www.w3.org/2000/svg" viewBox="0 0 24 24" width="48" height="48">
  <path d="M12 2C9.4328417 2 7.0858595 2.9741788 5.3125 4.5703125L4.2792969 3.5371094C4.0652969 3.3221094 3.7428906 3.259 3.4628906 3.375C3.3698906 3.414 3.2887031 3.4681094 3.2207031 3.5371094C3.0827031 3.6741094 3 3.8653594 3 4.0683594L3 7.25C3 7.664 3.336 8 3.75 8L6.9316406 8C7.2346406 8 7.508 7.8181094 7.625 7.5371094C7.741 7.2571094 7.6778906 6.9347031 7.4628906 6.7207031L6.7324219 5.9902344C8.1385008 4.7551123 9.9751122 4 12 4C16.430666 4 20 7.5693339 20 12 A 1.0001 1.0001 0 1 0 22 12C22 6.4886661 17.511334 2 12 2 z M 11.064453 7C10.935453 7 10.8275 7.0966094 10.8125 7.2246094L10.695312 8.2363281C10.211311 8.4043017 9.7738964 8.6598036 9.3945312 8.9882812L8.4570312 8.5839844C8.3390312 8.5329844 8.2026719 8.5774531 8.1386719 8.6894531L7.2011719 10.310547C7.1361719 10.421547 7.1665313 10.563625 7.2695312 10.640625L8.078125 11.240234C8.0307023 11.48651 8 11.739891 8 12C8 12.260109 8.0307023 12.51349 8.078125 12.759766L7.2695312 13.359375C7.1665313 13.435375 7.1371719 13.577453 7.2011719 13.689453L8.1386719 15.310547C8.2026719 15.422547 8.3390312 15.468969 8.4570312 15.417969L9.3945312 15.011719C9.7738964 15.340196 10.211311 15.595698 10.695312 15.763672L10.8125 16.775391C10.8275 16.903391 10.935453 17 11.064453 17L12.935547 17C13.064547 17 13.1725 16.903391 13.1875 16.775391L13.304688 15.763672C13.789173 15.59553 14.227802 15.340666 14.607422 15.011719L15.542969 15.414062C15.660969 15.465063 15.797328 15.420594 15.861328 15.308594L16.798828 13.6875C16.863828 13.5765 16.833469 13.434422 16.730469 13.357422L15.923828 12.757812C15.970992 12.512182 16 12.25938 16 12C16 11.739891 15.969298 11.48651 15.921875 11.240234L16.730469 10.640625C16.833469 10.564625 16.862828 10.422547 16.798828 10.310547L15.861328 8.6894531C15.797328 8.5774531 15.660969 8.5310312 15.542969 8.5820312L14.605469 8.9882812C14.226104 8.6598036 13.788689 8.4043017 13.304688 8.2363281L13.1875 7.2246094C13.1725 7.0966094 13.064547 7 12.935547 7L11.064453 7 z M 12 10C13.105 10 14 10.895 14 12C14 13.105 13.105 14 12 14C10.895 14 10 13.105 10 12C10 10.895 10.895 10 12 10 z M 2.984375 10.986328 A 1.0001 1.0001 0 0 0 2 12C2 17.511334 6.4886661 22 12 22C14.567158 22 16.914141 21.025821 18.6875 19.429688L19.720703 20.462891C19.934703 20.676891 20.257109 20.741 20.537109 20.625C20.818109 20.508 21 20.235641 21 19.931641L21 16.75C21 16.336 20.664 16 20.25 16L19.445312 16L17.068359 16C16.865359 16 16.674109 16.082703 16.537109 16.220703C16.469109 16.288703 16.414 16.369891 16.375 16.462891C16.259 16.742891 16.322109 17.065297 16.537109 17.279297L17.267578 18.009766C15.861499 19.244888 14.024888 20 12 20C7.5693339 20 4 16.430666 4 12 A 1.0001 1.0001 0 0 0 2.984375 10.986328 z" fill="#5B5B5B" />
</svg>