<?xml version="1.0" encoding="utf-8"?>
<!-- Generator: Adobe Illustrator 26.0.1, SVG Export Plug-In . SVG Version: 6.00 Build 0)  -->
<svg version="1.1"  xmlns="http://www.w3.org/2000/svg" xmlns:xlink="http://www.w3.org/1999/xlink" x="0px" y="0px"
	 viewBox="0 0 64 64" style="enable-background:new 0 0 64 64;" xml:space="preserve">
<path fill="currentColor" d="M10,14c-1.2,0-2.2,1.1-2,2.3c0.1,1,1.1,1.7,2.1,1.7l4.2,0c0,0,0,0,0.1,0l5.2,20.9c0.5,1.8,2.1,3.1,3.9,3.1h22.9
	c1.8,0,3.3-1.2,3.8-2.9l4.9-17.9c0.2-0.6-0.3-1.1-0.9-1.1H23.2c-0.6,0-1,0.6-0.9,1.1l0.5,2.2c0.1,0.4,0.5,0.7,0.9,0.7h25.4
	c0.6,0,1,0.6,0.9,1.1l-3.3,12.2c-0.1,0.4-0.5,0.7-0.9,0.7H24.3c-0.4,0-0.8-0.3-0.9-0.7l-5.1-20.2c-0.5-1.8-2.1-3.1-3.9-3.1H10z
	 M44,42c-3.3,0-6,2.7-6,6s2.7,6,6,6s6-2.7,6-6S47.3,42,44,42z M26,42c-3.3,0-6,2.7-6,6s2.7,6,6,6s6-2.7,6-6S29.3,42,26,42z M26,46
	c1.1,0,2,0.9,2,2s-0.9,2-2,2s-2-0.9-2-2S24.9,46,26,46z M44,46c1.1,0,2,0.9,2,2s-0.9,2-2,2s-2-0.9-2-2S42.9,46,44,46z"/>
</svg>
