<?xml version="1.0" encoding="utf-8"?>
<svg xmlns="http://www.w3.org/2000/svg" viewBox="0 0 24 24" width="48" height="48">
  <path d="M12 3L6 9L2 9L2 15L6 15L12 21L12 3 z M 14 3.0996094L14 5.0996094C17.1875 5.5683594 19.672607 8.1472168 19.970703 11.351562C19.990576 11.565186 20 11.78125 20 12C20 15.5 17.4 18.400391 14 18.900391L14 20.900391C18.5 20.400391 22 16.6 22 12C22 7.4 18.5 3.5996094 14 3.0996094 z M 14 7.0996094L14 9.1992188C15.2 9.5992188 16 10.7 16 12C16 13.3 15.2 14.400781 14 14.800781L14 16.900391C16.3 16.400391 18 14.4 18 12C18 9.6 16.3 7.5996094 14 7.0996094 z M 10 7.828125L10 16.171875L6.828125 13L4 13L4 11L6.828125 11L10 7.828125 z" fill="#5B5B5B" />
</svg>