<?xml version="1.0" encoding="utf-8"?>
<svg xmlns="http://www.w3.org/2000/svg" viewBox="0 0 32 32" width="64" height="64">
  <path d="M16 7C10.984375 7 6.457031 9.082031 3.1875 12.40625L4.59375 13.8125C7.5 10.851563 11.535156 9 16 9C20.464844 9 24.5 10.851563 27.40625 13.8125L28.8125 12.40625C25.542969 9.082031 21.015625 7 16 7 Z M 16 12C12.359375 12 9.082031 13.519531 6.71875 15.9375L8.125 17.34375C10.125 15.289063 12.914063 14 16 14C19.085938 14 21.875 15.289063 23.875 17.34375L25.28125 15.9375C22.917969 13.519531 19.640625 12 16 12 Z M 16 17C13.738281 17 11.707031 17.957031 10.25 19.46875L11.65625 20.875C12.75 19.726563 14.289063 19 16 19C17.710938 19 19.25 19.726563 20.34375 20.875L21.75 19.46875C20.296875 17.957031 18.261719 17 16 17 Z M 16 22C15.117188 22 14.332031 22.390625 13.78125 23L16 25.21875L18.21875 23C17.667969 22.390625 16.882813 22 16 22Z" fill="#5B5B5B" />
</svg>